<svg id="signature" xmlns="http://www.w3.org/2000/svg" viewBox="0 0 286.44 80"><path d="M251.2,48.4a.48.48,0,0,0-.6-.2c-.2,0-.4.1-.4.3-.6,1.3-2,2.3-3.1,3.3-.2.2-.5.3-.8.6a2.09,2.09,0,0,0-.6.4h-.5a1.08,1.08,0,0,1-1.1-.8,5.66,5.66,0,0,1-.3-1.8,9.5,9.5,0,0,0,1.7-1c1.7-1.3,2.6-3.3,3.5-5.2a1.61,1.61,0,0,0,.3-.9h0A4.77,4.77,0,0,0,249,40a1.43,1.43,0,0,0-1.7-.6c-3.8.4-6,7-6,10.1-.2.1-.2.3-.2.5a.55.55,0,0,0,.3.5V51a.6.6,0,0,0-.4.1,35.57,35.57,0,0,1-4.1,1.7c1.3-5.8,1.3-7.2-2.4-11.4-.3-.2-.6-.1-.9-.2a1.23,1.23,0,0,0-.8.4c-1.5,2.7-3.1,6.8-4.6,9.5a.82.82,0,0,0-.1,1.2c.1.2.3.2.5.2h.2a2,2,0,0,0,.8-.8h0c1.3-2,2.4-4.5,3.5-6.6.2-.4.4-.7.5-.9a8.42,8.42,0,0,1,1.1,2.1,9,9,0,0,1,.2,4c-.1,1-.5,2-.5,3a1.9,1.9,0,0,0,.5,1.3,1.51,1.51,0,0,0,1.7.6,37.93,37.93,0,0,0,3.4-1.8c.5-.3,1.1-.7,1.6-1a.22.22,0,0,0,.2-.2,2.62,2.62,0,0,0,.6,1.3,6.34,6.34,0,0,0,1.2,1,3.23,3.23,0,0,0,1.7.3,1.61,1.61,0,0,0,1.1-.5,9.22,9.22,0,0,0,.8-.5,4.81,4.81,0,0,0,1.1-.9,24.35,24.35,0,0,0,2.6-2.9,1.39,1.39,0,0,0,.5-1C251.5,48.8,251.4,48.6,251.2,48.4Zm-6.3-1.9c.6-1.5,1.1-3.2,2.3-4.3a3.55,3.55,0,0,1-.2,1h0a12.78,12.78,0,0,1-.9,2.2,5.9,5.9,0,0,0-.4.8,9.06,9.06,0,0,1-1.3,1.9A7.49,7.49,0,0,1,244.9,46.5Z" transform="translate(-0.16)"/><path d="M286.4,43c-.2-.3-.6-.2-.9,0-1.6.8-3.2,1.7-4.8,2.6a14.35,14.35,0,0,1-.1-8.7,2,2,0,0,0-.3-1.1.92.92,0,0,0-.9-.3,1.08,1.08,0,0,0-.7.3.63.63,0,0,0-.5.6c-1.9,3.1-4.6,5.9-6.1,9.3v.2a.68.68,0,0,0,1.3.3,11.38,11.38,0,0,1,1.8-2.5h0c.7-.8,1.4-1.5,2.1-2.4A37,37,0,0,0,278,47a12.58,12.58,0,0,0-3.2,2.9,1.83,1.83,0,0,0,1.9,2.9c2.7-.2,4.4-3.1,4.3-5.5,1-.7,2.5-1.5,3.5-2.2.5-.3,1-.7,1.5-1a1,1,0,0,0,.6-.8A1.44,1.44,0,0,0,286.4,43Z" transform="translate(-0.16)"/><path d="M73.8,7.4a.62.62,0,0,0,.6-.4.84.84,0,0,0,.2-.7,1.85,1.85,0,0,0-.2-.7.82.82,0,0,0-.7-.1h0a1,1,0,0,0-.9,1,.71.71,0,0,0,.3.6A4.88,4.88,0,0,0,73.8,7.4Z" transform="translate(-0.16)"/><path d="M103.6,8.6h-.2a52.05,52.05,0,0,0-8.2,3.3v-.1l-.3-.5a.61.61,0,0,0-.7-.3A1.72,1.72,0,0,0,93,12a16.94,16.94,0,0,0-2.3,4.9c-.4.1-.9.3-1.2.4-.7.3-1.5.6-2.3.9a10.2,10.2,0,0,0,.9-2.2,7.8,7.8,0,0,0,.3-2.2,3.86,3.86,0,0,0-1.1-3.1,3.53,3.53,0,0,0-2.6-.8c-2.1.2-3.7,2.1-4.7,3.8.1-1,.1-1.9.2-2.9a.63.63,0,0,0-1.1-.4c-.2.1-.2.3-.3.5-.3,2.9-.7,5.9-1.1,8.8h0a9.62,9.62,0,0,1-2.2,1.8,5,5,0,0,1-3.1.8c-.3,0-.5-.5-.5-1.2a59,59,0,0,1,1-7c0-.6-.2-.8-.5-.8a1.42,1.42,0,0,0-.9.8c-.5,1.1-.9,2.4-1.4,3.6h0a13,13,0,0,0-.6,4.8c-.5,0-.9.7-1.4.7-.2,0-.3-.2-.4-.4a5.66,5.66,0,0,1-.3-1.8,11.5,11.5,0,0,1,.2-3.2,12.25,12.25,0,0,0,.2-1.9,1.24,1.24,0,0,0-1.2-1.3,1.45,1.45,0,0,0-1,.7,6.47,6.47,0,0,0-.9,1.6c-.6,1.1-1.2,2.5-1.9,3.6a25.6,25.6,0,0,0-2,2.6v.1c-.2.2-.5.3-.7.5-.8-3.5.1-7.4,1.1-10.9.1-.1.1-.2.1-.4a.56.56,0,0,0-.7-.6c-.3,0-.5.2-.7.5a10.2,10.2,0,0,0-.9,2.1h0a38,38,0,0,0-1.3,5.1,34.29,34.29,0,0,0-7.5,6.7,77.44,77.44,0,0,1,3.7-9c.1-.2.2-.3.3-.5h0a1,1,0,0,0,.2-.7,1.06,1.06,0,0,0-1.2-1.2,1.33,1.33,0,0,0-.8.3l-.7.8a.37.37,0,0,0,.1-.3v-.5h0v-.5a2,2,0,0,0-.4-1.3.92.92,0,0,0-.9-.3,1.78,1.78,0,0,0-1,.4,19.36,19.36,0,0,0-2.7,2.1,17.6,17.6,0,0,0-4.6,9.1V25h-.5a32.39,32.39,0,0,1-3.2,1.7c-2.4,1-6.2,2.1-7.3-.8a6.45,6.45,0,0,1-.3-2c0-6,6.6-9.3,10.7-12.6a1.48,1.48,0,0,0,.1-.7,1.27,1.27,0,0,0-.4-.9,1.59,1.59,0,0,0-1.2-.4h-.3c-1.6.1-3.6.2-4.8-1a2.09,2.09,0,0,1-.1-2.6A6.86,6.86,0,0,1,36.6,4a16.49,16.49,0,0,1,6.6-2.4.55.55,0,0,0,.5-.3c.1-.2.2-.3.2-.5s.2-.6.1-.8h-.8a18.66,18.66,0,0,0-2.5.4,10.43,10.43,0,0,0-2.5.8C32.6,3.4,29.3,9.5,36,11.8h0c-3.8,2.9-7.6,7.1-7.6,12A6.19,6.19,0,0,0,30,28.4c2.2,1.8,5.7,1,8.3-.1a23.21,23.21,0,0,0,4.1-2.2.22.22,0,0,0,.2-.2l.3.3a2,2,0,0,0,1.3.4,4.49,4.49,0,0,0,1.8-.7c.6-.4,1.1-.8,1.6-1.2l.3-.3c-.8,3.2-1.7,6.6-1,9.7a3.33,3.33,0,0,0,1.4,1.7,1.64,1.64,0,0,0,1,.2,4,4,0,0,0,1.8-1,15.07,15.07,0,0,0,3.8-4.9c.5-1.1,1.2-2.7.3-3.7a1.74,1.74,0,0,0-1.4-.3,1.2,1.2,0,0,0-.8.2c1-.9,2-1.8,2.9-2.7a17.88,17.88,0,0,0,1.3-1.4,2,2,0,0,1-.1.8c0,1.6.6,3.8,2.6,3.7a4.94,4.94,0,0,0,1.6-.5,10.68,10.68,0,0,0,3.9-4.5,15.19,15.19,0,0,0,.6,2,1.71,1.71,0,0,0,1.7,1.2,3.45,3.45,0,0,0,2.1-1.2c.1.2.2.3.3.5a2,2,0,0,0,1.9.7,11.71,11.71,0,0,0,5.4-2.8c-.6,3.4-1,6.8-1.3,10.3v.2h0a1.23,1.23,0,0,0,.4.8,1.36,1.36,0,0,0,2-.8l1.1-8.1a.76.76,0,0,1,.1-.4A9.21,9.21,0,0,0,85,20.9c1.7-.8,3.5-1.6,5.1-2.4a3.17,3.17,0,0,0,.6,2.7,1.84,1.84,0,0,0,1.4.8,6.53,6.53,0,0,0,2-.5c2.7-1.3,4.2-4.4,4.4-7.2a2.6,2.6,0,0,0-.4-1.5c1.8-1.1,3.6-1.9,5.5-2.9a.84.84,0,0,0,.4-.7C104.2,8.9,103.9,8.6,103.6,8.6ZM49,19.9c-.7.8-1.4,1.5-2.1,2.3a10,10,0,0,1-1,1.1,4.35,4.35,0,0,1-.7.6c-.2,0-.4.1-.6.1.5-3.6,2.3-7.4,5.5-9.5l.1.1.1,1.1c0,.2.1.3.3.4a.6.6,0,0,0,.4.1.55.55,0,0,0,.5-.3,5.94,5.94,0,0,1-.4.8A8.49,8.49,0,0,1,49,19.9Zm4.8,7.9A11,11,0,0,1,50.4,33a4.88,4.88,0,0,1-.7.3.46.46,0,0,1-.4-.5c0-1.1,0-2.2.1-3.3A11.86,11.86,0,0,1,53.8,27.8ZM85,17.3a15.1,15.1,0,0,1-2.2,2.8c-.9.4-1.8.9-2.5,1.3a1.7,1.7,0,0,0,.1-.7,4.33,4.33,0,0,1,.1-.5c.7-2,1.3-4.7,2.8-6.5a2.3,2.3,0,0,1,1.4-.9,1,1,0,0,1,.9.4C86.3,14.4,85.7,16,85,17.3Zm11-2.6c-.1.3-.1.5-.2.8-.2.5-.4.9-.6,1.4a13,13,0,0,1-1,1.5,1.83,1.83,0,0,1-1.3.8,13.55,13.55,0,0,1,1-5.6,1.18,1.18,0,0,0,.9.9.64.64,0,0,0,.6,0,.73.73,0,0,1,.6.2Z" transform="translate(-0.16)"/><path d="M272.1,46.6a.48.48,0,0,0-.6-.2c-.2,0-.4.1-.4.3-.6,1.3-2,2.3-3.1,3.3-.2.2-.5.3-.8.6a2.09,2.09,0,0,0-.6.4h-.5a1.08,1.08,0,0,1-1.1-.8,5.66,5.66,0,0,1-.3-1.8,9.5,9.5,0,0,0,1.7-1c1.7-1.3,2.6-3.3,3.5-5.2a1.61,1.61,0,0,0,.3-.9h0a4.77,4.77,0,0,0-.3-3.1,1.43,1.43,0,0,0-1.7-.6c-3.5.5-4.9,5.1-5.8,7.9,0,.1-.1.2-.1.3s-.2.1-.3.2a23.62,23.62,0,0,1-3.2,4.4,6.42,6.42,0,0,1-2,1.6c-.1,0-.1-.1-.2-.3a9.15,9.15,0,0,1-.1-1.7,40.45,40.45,0,0,1,1.2-9.8,9.83,9.83,0,0,1,1.6-.5c1.3-.4,2.6-.7,3.9-1.2.4,0,.7-.4.8-.8a.68.68,0,0,0-.4-.6,15.5,15.5,0,0,0-4.3.1,2.2,2.2,0,0,0-.8.1c.5-3.2,1.4-5.8,1.8-8.7a.75.75,0,0,0-.5-.7h-.2a1.64,1.64,0,0,0-1.2.8,6.71,6.71,0,0,0-.8,1.7c-.4.9-.6,2.4-.9,3.2-.5,2-1,3.8-2.6,5.2a8.58,8.58,0,0,0-2,1.3,1.76,1.76,0,0,0-.9,1.3c0,.5.2.7.5.7a1.78,1.78,0,0,0,1-.4,15.55,15.55,0,0,1,2.3-.8,36,36,0,0,0-.8,5.6c-.1.5-.1,1-.2,1.6h0c0,.6-.1,1.1-.1,1.7.1,1.7.3,4.6,2.5,4.7a3.81,3.81,0,0,0,1.7-.8,20.41,20.41,0,0,0,4.2-5.1l.1.1a4.44,4.44,0,0,0,2.1,4.2,3.23,3.23,0,0,0,1.7.3,1.61,1.61,0,0,0,1.1-.5,9.22,9.22,0,0,0,.8-.5,4.81,4.81,0,0,0,1.1-.9,24.35,24.35,0,0,0,2.6-2.9,1.39,1.39,0,0,0,.5-1A.72.72,0,0,0,272.1,46.6Zm-6.3-1.9c.6-1.5,1.1-3.2,2.3-4.3a3.55,3.55,0,0,1-.2,1h0a12.78,12.78,0,0,1-.9,2.2,5.9,5.9,0,0,0-.4.8,9.06,9.06,0,0,1-1.3,1.9A7.49,7.49,0,0,1,265.8,44.7Z" transform="translate(-0.16)"/><path d="M125.6,49a15.5,15.5,0,0,0-4.3.1,2.2,2.2,0,0,0-.8.1c.5-2.8,1.1-5.3,1.7-7.7a3.4,3.4,0,0,0,.1-1,.53.53,0,0,0-.7-.6,1.64,1.64,0,0,0-1.2.8,17.84,17.84,0,0,0-1.7,4.9,10.24,10.24,0,0,1-1.5,3.9,6.28,6.28,0,0,1-1.1,1.2,13.73,13.73,0,0,0-2,1.3,1.76,1.76,0,0,0-.9,1.3c0,.5.2.7.5.7a1.78,1.78,0,0,0,1-.4,9,9,0,0,1,2.3-.8,36,36,0,0,0-.8,5.6c-.1.5-.1,1-.2,1.6h0c-.1,2-.3,6.3,2.4,6.4a3.81,3.81,0,0,0,1.7-.8,21.34,21.34,0,0,0,5.1-6.8.71.71,0,0,0-1-1,23.62,23.62,0,0,1-3.2,4.4,6.42,6.42,0,0,1-2,1.6c-.3-.1-.2-.8-.3-1.1a37.47,37.47,0,0,1,1.1-10.6,9.83,9.83,0,0,1,1.6-.5c1.3-.4,2.6-.7,3.9-1.2.4,0,.7-.4.8-.8A1,1,0,0,0,125.6,49Z" transform="translate(-0.16)"/><path d="M199.3,55.9c0-.1-.2-.2-.3-.2-.6.1-1,.7-1.6.8-.2,0-.3-.2-.3-.4a2.35,2.35,0,0,1-.2-.8,3.08,3.08,0,0,1-.1-1,11.5,11.5,0,0,1,.2-3.2c.1-.9.5-2.1-.2-2.9a.83.83,0,0,0-.8-.3,1.45,1.45,0,0,0-1,.7,30.1,30.1,0,0,0-1.9,3.5c-.6,1.6-1.9,2.8-2.9,4.2v.1c-.2.2-.5.3-.7.5a12.22,12.22,0,0,1-.3-2.6,32.7,32.7,0,0,1,.4-4.4c.2-1.4.7-2.8,1-4.3a.56.56,0,0,0-.7-.6c-.3,0-.5.2-.7.5a10.2,10.2,0,0,0-.9,2.1h0a23.93,23.93,0,0,0-1.2,4.6h0a.76.76,0,0,0-.5.2,11.83,11.83,0,0,1-6.4,4.6c-1.4-.7-1.4-2.5-1.5-3.8a12.2,12.2,0,0,0,2.4-3.2,44.26,44.26,0,0,0,4.8-12.3,3.59,3.59,0,0,0,.2-1.1h0c.3-1.6.1-4.5-2-4.2a1.61,1.61,0,0,0-1.1.5,9.43,9.43,0,0,0-3.3,3.8,31,31,0,0,0-3.3,10.7,39.48,39.48,0,0,0-6.7,2.8s-.1-.1,0-.1h0l-.2-.6a.61.61,0,0,0-.7-.3,2.12,2.12,0,0,0-1.3,1,22.11,22.11,0,0,0-1.8,3.4h0c-4.4,4.4-18.1,11.7-21.7,4.8a6.63,6.63,0,0,1-.5-2.8c.1-6.6,5.8-17.6,13-18.6,1.9-.3,4.2.7,4,2.8a2.82,2.82,0,0,1-.4,1.5,2.1,2.1,0,0,0-.4,1.1.51.51,0,0,0,.7.5c.2,0,.3-.1.5-.1a7.24,7.24,0,0,0,1.1-1.9h0a4.53,4.53,0,0,0,.3-1.6c0-3.2-3.5-4.6-6.3-4.2-10,1.1-21.9,23.5-10.8,28.5,2.7,1,5.7.3,8.5-.6a35.59,35.59,0,0,0,9.4-5.1c.7-.5,1.3-1,2-1.6-.1.4-.1.8-.2,1.3a2.88,2.88,0,0,0,.6,1.9,1.84,1.84,0,0,0,1.4.8c3.2-.1,5.3-3,6.1-5.9a4,4,0,0,0-.1-3.2,17.39,17.39,0,0,1,2.7-1.4,2.51,2.51,0,0,0,.7-.4,20.08,20.08,0,0,0-.1,2.5,13,13,0,0,0,1.1,5.9,2.88,2.88,0,0,0,3,1.7c2.7-.3,4.9-2.5,6.6-4.5,0,.5-.1,1-.1,1.5a4.46,4.46,0,0,0,.9,3,2.19,2.19,0,0,0,1.7.7,4.94,4.94,0,0,0,1.6-.5,9.83,9.83,0,0,0,1.5-1.2,11.19,11.19,0,0,0,2.4-3.3,5.77,5.77,0,0,0,1.3,3,1.31,1.31,0,0,0,1,.3,2.51,2.51,0,0,0,1.4-.6c.4-.3,1-.8,1-1.4C199.4,56.2,199.4,56,199.3,55.9ZM170.5,53c-.1.3-.1.5-.2.8-.2.5-.4.9-.6,1.4a13,13,0,0,1-1,1.5,1.83,1.83,0,0,1-1.3.8,12.2,12.2,0,0,1,1.1-5.6,1.06,1.06,0,0,0,.9.9.64.64,0,0,0,.6,0c.2,0,.4,0,.5.2Zm10.3-11.8c.4-.9.8-1.9,1.2-2.8h0a10.68,10.68,0,0,1,1.6-2.5c-.2,3.8-1.8,7.8-3.1,11.4a17.62,17.62,0,0,1-1.9,3.9A29.5,29.5,0,0,1,180.8,41.2Z" transform="translate(-0.16)"/><path d="M77.9,66.5c-.1-.1-.2-.2-.3-.2-.6.1-1,.7-1.6.8-.2,0-.3-.2-.3-.4a2.35,2.35,0,0,1-.2-.8,3.08,3.08,0,0,1-.1-1,11.5,11.5,0,0,1,.2-3.2,12.25,12.25,0,0,0,.2-1.9,1.24,1.24,0,0,0-1.2-1.3,1.45,1.45,0,0,0-1,.7c-1.1,1.7-1.7,3.6-2.8,5.3a25.6,25.6,0,0,0-2,2.6v.1c-.2.2-.5.3-.7.5a12.22,12.22,0,0,1-.3-2.6,21.83,21.83,0,0,1,.4-4.4,33.39,33.39,0,0,1,1-4c.1-.1.1-.2.1-.4a.56.56,0,0,0-.7-.6c-.3,0-.5.2-.7.5a10.2,10.2,0,0,0-.9,2.1h0a39.23,39.23,0,0,0-1.5,5.9c-.1.4-.1.9-.2,1.3a1,1,0,0,0-.5.4c-.3.3-.6.7-1,1.1a5.73,5.73,0,0,1-1.1,1.1,2,2,0,0,1-1.2.6,2,2,0,0,1-.1-.8c.1-2.2,1.1-4.7,1.5-6.9a2,2,0,0,0-.3-1.1c-.2-.3-.6-.3-.9-.3h-.3c0-.1,0-.1.1-.2v-.2a2.11,2.11,0,0,0-.6-1.6c-1-1-2.7-.5-3.7.4a8.34,8.34,0,0,0-1.9,2.3,13,13,0,0,0-1.4,3.2,11.63,11.63,0,0,0-.4,1.8,30.13,30.13,0,0,1-2.2,2.8,6.42,6.42,0,0,1-2,1.6c-.1,0-.1-.1-.2-.3-.5-3.7.2-7.8,1-11.4a9.83,9.83,0,0,1,1.6-.5c1.3-.4,2.6-.7,3.9-1.2.4,0,.7-.4.8-.8a.68.68,0,0,0-.4-.6,15.5,15.5,0,0,0-4.3.1,2.2,2.2,0,0,0-.8.1c.5-3.2,1.4-5.8,1.8-8.7a.75.75,0,0,0-.5-.7H52a1.64,1.64,0,0,0-1.2.8,6.71,6.71,0,0,0-.8,1.7c-.4.9-.6,2.4-.9,3.2-.5,2-1,3.8-2.6,5.2a8.58,8.58,0,0,0-2,1.3,1.76,1.76,0,0,0-.9,1.3c0,.5.2.7.5.7a1.78,1.78,0,0,0,1-.4,15.55,15.55,0,0,1,2.3-.8,41.66,41.66,0,0,0-.8,4.9.1.1,0,0,1,.1.1.76.76,0,0,1,.2.5,2.09,2.09,0,0,1-.4.6c0,.4-.1.8-.1,1.2,0,.6-.1,1.1-.1,1.7A6.47,6.47,0,0,0,47.6,72a1.37,1.37,0,0,0,1.2.4,3.81,3.81,0,0,0,1.7-.8,15.72,15.72,0,0,0,3-3.3,1.46,1.46,0,0,0,.6.9,2.11,2.11,0,0,0,1.8.6,1.91,1.91,0,0,0,.8-.3,12.66,12.66,0,0,0,2.5-2.1,4.87,4.87,0,0,0,.1,1.2,2.69,2.69,0,0,0,.9,2,1.69,1.69,0,0,0,1,.3,4.42,4.42,0,0,0,1.6-.6,12.81,12.81,0,0,0,2.6-2.6c.1,1.4.9,3,2.5,2.9a4.94,4.94,0,0,0,1.6-.5A9.83,9.83,0,0,0,71,68.9a11.19,11.19,0,0,0,2.4-3.3c.3,1.2.7,3.3,2.3,3.3a3.75,3.75,0,0,0,2.1-1.2.91.91,0,0,0,.3-.7C78,66.8,78,66.6,77.9,66.5ZM59.4,61.9c-1,1.7-1.7,3.8-3.5,5a11.56,11.56,0,0,1,.8-4.5,8.51,8.51,0,0,1,2.4-3.3l1,.2v.3a.75.75,0,0,0,.5.7A6.1,6.1,0,0,0,59.4,61.9Z" transform="translate(-0.16)"/><path d="M31.9,67.2c-.2,0-.3.1-.4.3a8.34,8.34,0,0,1-.8,1.2,11.75,11.75,0,0,1-3,2.5c-.2.1-.3.2-.5.3h-.5a1.08,1.08,0,0,1-1.1-.8,5.66,5.66,0,0,1-.3-1.8c2.7-1,4.1-3.8,5.2-6.2a1.61,1.61,0,0,0,.3-.9h0a4.87,4.87,0,0,0,.1-1.2,4.06,4.06,0,0,0-.4-1.9,1.43,1.43,0,0,0-1.7-.6c-3.5.5-4.9,5.1-5.8,7.9a8.33,8.33,0,0,0-.3,2.2.76.76,0,0,0-.2.5.55.55,0,0,0,.3.5c0,1.7.5,3.4,2.1,4.2a3.23,3.23,0,0,0,1.7.3,2.1,2.1,0,0,0,1.1-.4,9.22,9.22,0,0,0,.8-.5,4.81,4.81,0,0,0,1.1-.9A24.35,24.35,0,0,0,32.2,69a1.91,1.91,0,0,0,.5-1,.71.71,0,0,0-.3-.6A.76.76,0,0,0,31.9,67.2Zm-5.8-1.7a13.31,13.31,0,0,1,1.5-3.2,4.36,4.36,0,0,1,.9-1.1,3.55,3.55,0,0,1-.2,1h0c-.1.4-.3.7-.4,1.1a16.32,16.32,0,0,1-.9,1.9,9.06,9.06,0,0,1-1.3,1.9A5.35,5.35,0,0,1,26.1,65.5Z" transform="translate(-0.16)"/><path d="M114.6,62.7h-.2a.37.37,0,0,0-.3.1l-2.4,1-.7-.4a3.08,3.08,0,0,1-.1-1c-.2-2.8.7-5.6.7-8.4a2.1,2.1,0,0,0-.4-1.1,2,2,0,0,0-1.5-.5,1.83,1.83,0,0,0-1,.7,30,30,0,0,0-3.2,4.7V56.2c0-.4-.1-.7-.1-1.1h-.1c-.1-.3-.4-.6-.7-.4-1,.2-.7,1.6-.9,2.4a3.08,3.08,0,0,1-.1,1h0c-.4,1.5-1,3.2-1.3,4.8-.3.3-.5.6-.9,1a5.73,5.73,0,0,1-1.1,1.1,2,2,0,0,1-1.2.6,2,2,0,0,1-.1-.8c.1-2.2,1.1-4.7,1.5-6.9a2,2,0,0,0-.3-1.1c-.2-.3-.6-.3-.9-.3H99c0-.1,0-.1.1-.2v-.2a2.11,2.11,0,0,0-.6-1.6c-1-1-2.7-.5-3.7.4a8.34,8.34,0,0,0-1.9,2.3,12.75,12.75,0,0,0-2,6.7,29.48,29.48,0,0,1-4.1,1.7c.4-2.6,1.2-4.4.7-6.7-.6-1.9-1.8-3-3.1-4.7-.1-.2-.4-.2-.7-.2a1.23,1.23,0,0,0-.8.4c-1.5,2.7-3.1,6.8-4.6,9.5a.85.85,0,0,0,.4,1.5h.2a1.85,1.85,0,0,0,.7-.8c1.3-2,2.4-4.5,3.5-6.6.2-.4.4-.7.5-.9a8.42,8.42,0,0,1,1.1,2.1,9,9,0,0,1,.2,4l-.3,1.5a7.72,7.72,0,0,0-.2,1.5,1.9,1.9,0,0,0,.5,1.3,1.51,1.51,0,0,0,1.7.6A37.93,37.93,0,0,0,90,66.3a17,17,0,0,0,1.4-1,2,2,0,0,0,2.2,1.2,1.91,1.91,0,0,0,.8-.3,12.66,12.66,0,0,0,2.5-2.1,4.87,4.87,0,0,0,.1,1.2,2.69,2.69,0,0,0,.9,2,1.69,1.69,0,0,0,1,.3,4.42,4.42,0,0,0,1.6-.6,9,9,0,0,0,1.8-1.6,2.19,2.19,0,0,0,.3.5.78.78,0,0,0,.8.2,1.49,1.49,0,0,0,.9-.4,5.54,5.54,0,0,0,1.2-1.9,30.45,30.45,0,0,1,3.2-5.9c-.1,1-.3,2.3-.3,3.3a5.28,5.28,0,0,0,.9,3.5,2.26,2.26,0,0,0,2.1,1.1,3.81,3.81,0,0,0,1-.3,6.72,6.72,0,0,0,1.2-.6,10.54,10.54,0,0,0,1.1-.7,1.28,1.28,0,0,0,.5-.7A.76.76,0,0,0,114.6,62.7Zm-17.4-4c-1,1.7-1.7,3.8-3.5,5a11.56,11.56,0,0,1,.8-4.5,8.51,8.51,0,0,1,2.4-3.3l1,.2v.3a.75.75,0,0,0,.5.7A4,4,0,0,0,97.2,58.7Z" transform="translate(-0.16)"/><path d="M46.6,63.8c-.2-.2-.6-.1-.8,0-1.6.8-3.2,1.7-4.8,2.6a14.35,14.35,0,0,1-.1-8.7,2,2,0,0,0-.3-1.1.92.92,0,0,0-.9-.3,1.08,1.08,0,0,0-.7.3.63.63,0,0,0-.5.6c-1.9,3.1-4.6,5.9-6.1,9.3v.2a.68.68,0,0,0,1.3.3,11.38,11.38,0,0,1,1.8-2.5h0c.7-.8,1.4-1.5,2.1-2.4a37,37,0,0,0,.7,5.7,12.58,12.58,0,0,0-3.2,2.9A1.83,1.83,0,0,0,37,73.6c2.7-.2,4.4-3.1,4.3-5.5,1-.7,2.5-1.5,3.5-2.2.5-.3,1-.7,1.5-1a.22.22,0,0,0,.2-.2v-.4C46.6,64.3,46.6,64.1,46.6,63.8Z" transform="translate(-0.16)"/><path d="M227.7,52.2h-.2a7,7,0,0,1-1.4.3,5.77,5.77,0,0,1-1.4.3,10.32,10.32,0,0,0,1.4-3,8.13,8.13,0,0,0,.2-5.1,2.67,2.67,0,0,0-2.6-2,3.26,3.26,0,0,0-1.8.8,8.52,8.52,0,0,0-1.7,1.6l.2-1.2a41.61,41.61,0,0,0,6-7.3A18.91,18.91,0,0,0,228,33h0a15.83,15.83,0,0,0,.5-3.8,2.34,2.34,0,0,0-.8-1.8,2.56,2.56,0,0,0-1.9-.6,4,4,0,0,0-2.8,1.9c-4.4,6.8-5.5,15.5-6.6,22.9a7.31,7.31,0,0,1-1.4,1.6,4,4,0,0,1-1.7.9,2.22,2.22,0,0,1-.5-1.1c-.3-1.7.1-3.8.1-5.5a1.19,1.19,0,0,0-1.2-1,1.86,1.86,0,0,0-1.2.9l-2.2,3.8c.1-2.3,2-5.3.1-7.2a.61.61,0,0,0-.8-.1c-1.8.4-2.5,2.6-3.3,3.9-.7,1.1-1.1,2.3-1.8,3.4a22.11,22.11,0,0,0,.8-4.2,3.55,3.55,0,0,0-.2-1,.66.66,0,0,0-.4-.5,1,1,0,0,0-.5.4c-.3.5-.6,1.1-.9,1.7a10.08,10.08,0,0,1-.6,1.9h0a23.68,23.68,0,0,0-1.5,6.5,2.3,2.3,0,0,0,.4,1.4.76.76,0,0,0,.9.3,2,2,0,0,0,1.4-.9,29.5,29.5,0,0,0,3.6-6.2c-.1,1.5-.5,3.4.6,4.5a1.64,1.64,0,0,0,1,.2c1.7,0,2.6-1.7,3.4-3a5.85,5.85,0,0,0,.2,1.3,4.1,4.1,0,0,0,1.3,2.3,1.74,1.74,0,0,0,1.4.3c1.2-.1,2-1.3,2.8-2v1.1a1.57,1.57,0,0,0,.5,1.5,1.69,1.69,0,0,0,1,.3,1.8,1.8,0,0,0,.9-.4,3.22,3.22,0,0,0,.8-1.3,4.82,4.82,0,0,0,1.2,0,4.29,4.29,0,0,0,2.4-1c.9-.2,2.3-.5,3.2-.8a9.38,9.38,0,0,0,1.5-.6c.3-.1.6-.4.6-.6C228.4,52.4,228.1,52.1,227.7,52.2Zm-5.9-14.3c.8-3,1.7-6.2,4.1-8.5h.3v.7a11.9,11.9,0,0,1-1.4,6.1,31.66,31.66,0,0,1-3.7,5.1C221.3,40.2,221.5,39,221.8,37.9ZM206.1,48.7v0Zm14,4Zm4.1-3.1a6.58,6.58,0,0,1-2.5,4l-1.7.3a4.48,4.48,0,0,1,.4-2c.6-1.6,1.6-3.8,2.4-5.4a4.7,4.7,0,0,1,.9-1.2h0c.3.2.5.4.5.7a5,5,0,0,1,.2,1.2A6.52,6.52,0,0,1,224.2,49.6Z" transform="translate(-0.16)"/><path d="M22.3,71.1c-2.9-1.1-6.2-2-8.7-3.9l.4-.3c4-3.3,10.3-6.8,10.7-12.4a4.42,4.42,0,0,0-1.5-3.6,5.56,5.56,0,0,0-3.8-.9,13.71,13.71,0,0,0-5.8,2.2c0-.2.1-.3,0-.5a4,4,0,0,0-.3-1.5A3.91,3.91,0,0,0,8.2,48a3.75,3.75,0,0,0-1.2.7A19.42,19.42,0,0,0,.7,58.1c-.9,2.8-1.1,7.6,2.9,7.1.8.1,1.2-1.1.5-1.4H3.8a1.29,1.29,0,0,1-1.6-.5,3.29,3.29,0,0,1-.4-1.7A18,18,0,0,1,6.9,51.1a4.12,4.12,0,0,1,2.1-1,1.68,1.68,0,0,1,1.2.3,2.32,2.32,0,0,1,.3,1.6A34.55,34.55,0,0,1,9,60.3l-.4,1.5A53.39,53.39,0,0,0,7,67.1C6,71,4.7,74.5,3.8,78.2v.4a1.5,1.5,0,0,0,.4,1.1c.2.3.6.3.9.3a1.64,1.64,0,0,0,1.2-.8v-.1a.1.1,0,0,1,.1.1c1.5-4.6,2.9-10.2,4.4-15S13.6,52.7,19.5,52a2.58,2.58,0,0,1,2.1.5c1.1,1.1.6,3.1-.2,4.5-2,3.4-5.3,6.1-8.4,8.3-.7.5-1.4,1-1.4,1.9a1.44,1.44,0,0,0,.7,1.1.86.86,0,0,0,.6.3c2.9,1.2,5.6,2.9,8.8,3.6a.6.6,0,0,0,.4.1.68.68,0,0,0,.7-.7C22.7,71.5,22.6,71.2,22.3,71.1Z" transform="translate(-0.16)"/></svg>