<svg id="Layer_1" data-name="Layer 1" xmlns="http://www.w3.org/2000/svg" viewBox="0 0 20 90"><path d="M9.72,1a9,9,0,0,1,9,9V20.86A8.76,8.76,0,0,1,10,29.61h-.5A8.77,8.77,0,0,1,.72,20.86V10a9,9,0,0,1,9-9m0-1a10,10,0,0,0-10,10V20.86a9.76,9.76,0,0,0,9.75,9.75H10a9.75,9.75,0,0,0,9.75-9.75V10a10,10,0,0,0-10-10Z" transform="translate(0.28 0)" fill="#616264"/><path d="M9.72,4.75a.79.79,0,0,1,.79.79V8.7a.79.79,0,0,1-1.58,0V5.54a.8.8,0,0,1,.79-.79m0-1A1.79,1.79,0,0,0,7.93,5.54V8.7a1.79,1.79,0,0,0,3.58,0V5.54A1.79,1.79,0,0,0,9.72,3.75Z" transform="translate(0.28 0)" fill="#616264"/><polygon points="15.92 82.94 10.78 88.09 10.78 49.29 9.78 49.29 9.78 88.09 4.63 82.94 3.92 83.65 10.28 90 16.63 83.65 15.92 82.94" fill="#616264"/></svg>