<?xml version="1.0" encoding="utf-8"?>
<!-- Generator: Adobe Illustrator 25.0.0, SVG Export Plug-In . SVG Version: 6.00 Build 0)  -->
<svg version="1.1" id="Layer_2" xmlns="http://www.w3.org/2000/svg" xmlns:xlink="http://www.w3.org/1999/xlink" x="0px" y="0px"
	 viewBox="0 0 170 20" enable-background="new 0 0 170 20" xml:space="preserve">
<g>
	<path fill="#636363" d="M73.9,9.8c-2.6-0.4-5.2-0.7-7.9-0.9c-1.3-0.1-2.6-0.2-3.9-0.3l-3.9-0.2c-2.6-0.1-5.2-0.1-7.9,0
		c-2.6,0.1-5.2,0.2-7.9,0.3L26.7,9.2c-5.2,0.2-10.5,0.4-15.7,0.6v0.3c5.2,0.2,10.5,0.4,15.7,0.6l15.7,0.5c2.6,0.1,5.2,0.2,7.9,0.3
		c2.6,0.1,5.2,0.1,7.9,0l3.9-0.2c1.3-0.1,2.6-0.2,3.9-0.3c2.6-0.2,5.2-0.5,7.9-0.9V9.8z"/>
	<path fill="#636363" d="M11.1,6.3L11.1,6.3C11,6.2,4.5,9.5,3.1,10c1.3,0.5,7.9,3.8,7.9,3.8l0.1-0.1L9.7,10L11.1,6.3z"/>
	<path fill="#636363" d="M77.9,7.8c-0.4-0.5-0.9-0.9-1.4-1.1c-0.9-0.5-1.9-0.7-2.9-0.6c0.8,0.6,1.7,1.2,2.4,1.9
		c0.4,0.3,0.7,0.7,0.9,1c0.2,0.4,0.4,0.7,0.4,1c0,0.3-0.1,0.7-0.3,1c-0.2,0.4-0.5,0.7-0.9,1c-0.7,0.7-1.5,1.2-2.4,1.9
		c1,0.1,2-0.1,2.9-0.6c0.5-0.3,0.9-0.6,1.3-1.1c0.2-0.3,0.4-0.6,0.5-1c0.1-0.2,0.1-0.4,0.2-0.6c0-0.1,0-0.2,0-0.4c0-0.2,0-0.1,0-0.3
		c0-0.5-0.1-0.9-0.3-1.3C78.3,8.3,78.1,8,77.9,7.8z"/>
	<path fill="#636363" d="M79.4,4.5c0.3,1,0.4,1.9,0.5,2.8c0.1,0.9,0.1,1.8,0.1,2.7c0,0.9,0,1.8-0.1,2.7c-0.1,0.9-0.2,1.8-0.5,2.8
		c0.7-0.5,1.3-1.4,1.6-2.4c0.3-1,0.5-2.1,0.5-3.1c0-1.1-0.2-2.1-0.5-3.1C80.7,5.9,80.2,5,79.4,4.5z"/>
	<path fill="#636363" d="M159.1,9.8c-5.2-0.2-10.5-0.4-15.7-0.6l-15.7-0.5c-2.6-0.1-5.2-0.2-7.9-0.3c-2.6-0.1-5.2-0.1-7.9,0
		l-3.9,0.2c-1.3,0.1-2.6,0.2-3.9,0.3c-2.6,0.2-5.2,0.5-7.9,0.9v0.3c2.6,0.4,5.2,0.7,7.9,0.9c1.3,0.1,2.6,0.2,3.9,0.3l3.9,0.2
		c2.6,0.1,5.2,0.1,7.9,0c2.6-0.1,5.2-0.2,7.9-0.3l15.7-0.5c5.2-0.2,10.5-0.4,15.7-0.6V9.8z"/>
	<path fill="#636363" d="M159,6.2L159,6.2l1.4,3.8l-1.4,3.8l0.1,0.1c0,0,6.5-3.4,7.9-3.8C165.5,9.5,159,6.2,159,6.2z"/>
	<path fill="#636363" d="M93.1,11c-0.2-0.4-0.3-0.7-0.3-1c0-0.3,0.1-0.7,0.4-1c0.2-0.4,0.6-0.7,0.9-1c0.7-0.7,1.5-1.2,2.4-1.9
		c-1-0.1-2,0.1-2.9,0.6c-0.5,0.3-0.9,0.6-1.4,1.1c-0.2,0.3-0.4,0.6-0.6,0.9c-0.1,0.4-0.2,0.8-0.3,1.3c0,0.2,0,0.2,0,0.3
		c0,0.1,0,0.3,0,0.4c0,0.2,0.1,0.4,0.2,0.6c0.1,0.4,0.3,0.7,0.5,1c0.4,0.5,0.9,0.9,1.3,1.1c0.9,0.5,1.9,0.7,2.9,0.6
		c-0.8-0.6-1.7-1.2-2.4-1.9C93.6,11.7,93.3,11.4,93.1,11z"/>
	<path fill="#636363" d="M90.6,4.5C89.8,5,89.3,5.9,89,6.9c-0.3,1-0.5,2-0.5,3.1c0,1,0.1,2.1,0.5,3.1c0.3,1,0.8,1.9,1.6,2.4
		c-0.3-1-0.4-1.9-0.5-2.8c-0.1-0.9-0.1-1.8-0.1-2.7c0-0.9,0-1.8,0.1-2.7C90.2,6.4,90.3,5.5,90.6,4.5z"/>
	<path fill="#636363" d="M85.1,7.5c-0.1,0-0.1,0-0.1,0c-0.1,0-0.1,0-0.1,0c-1,0-1.9,1.1-1.9,2.5c0,1.4,0.8,2.5,1.9,2.5
		c0.1,0,0.1,0,0.1,0c0.1,0,0.1,0,0.1,0c1,0,1.9-1.1,1.9-2.5C87,8.6,86.2,7.5,85.1,7.5z"/>
</g>
</svg>
